<?xml version="1.0" encoding="UTF-8" standalone="no"?>
<svg
   xmlns:dc="http://purl.org/dc/elements/1.1/"
   xmlns:cc="http://creativecommons.org/ns#"
   xmlns:rdf="http://www.w3.org/1999/02/22-rdf-syntax-ns#"
   xmlns:svg="http://www.w3.org/2000/svg"
   xmlns="http://www.w3.org/2000/svg"
   xmlns:sodipodi="http://sodipodi.sourceforge.net/DTD/sodipodi-0.dtd"
   xmlns:inkscape="http://www.inkscape.org/namespaces/inkscape"
   xml:space="preserve"
   version="1.1"
   overflow="visible"
   viewBox="0 0 102 102"
   id="svg3070"
   inkscape:version="0.48.3.1 r9886"
   width="100%"
   height="100%"
   sodipodi:docname="rdf_colored.svg"
   style="overflow:visible"
   inkscape:export-filename="/home/ken/Desktop/rdf_16x16.png"
   inkscape:export-xdpi="14.117647"
   inkscape:export-ydpi="14.117647"><metadata
   id="metadata3096"><rdf:RDF><cc:Work
       rdf:about=""><dc:format>image/svg+xml</dc:format><dc:type
         rdf:resource="http://purl.org/dc/dcmitype/StillImage" /><dc:title></dc:title></cc:Work></rdf:RDF></metadata><defs
   id="defs3094" /><sodipodi:namedview
   pagecolor="#ffffff"
   bordercolor="#666666"
   borderopacity="1"
   objecttolerance="10"
   gridtolerance="10"
   guidetolerance="10"
   inkscape:pageopacity="0"
   inkscape:pageshadow="2"
   inkscape:window-width="1920"
   inkscape:window-height="1124"
   id="namedview3092"
   showgrid="false"
   inkscape:snap-bbox="true"
   inkscape:object-paths="true"
   inkscape:zoom="2.3163825"
   inkscape:cx="204.31897"
   inkscape:cy="122.95403"
   inkscape:window-x="0"
   inkscape:window-y="24"
   inkscape:window-maximized="1"
   inkscape:current-layer="g3072" />
  <g
   shape-rendering="geometricPrecision"
   text-rendering="geometricPrecision"
   image-rendering="optimizeQuality"
   id="g3072"
   transform="translate(4,0.117)">
    
    <path
   style="fill:#4d4d4d"
   d="m 58.71875,21.34375 c 0,0 1.101,4.86025 -10.25,11.90625 C 37.11975,40.3 32,36.78125 32,36.78125 L 32.3125,37.25 c 4.46777,2.742025 7.698238,7.325957 8.625,12.6875 L 41,50.03125 c 0,0 -0.80375,-4.289 10.40625,-11.25 8.064024,-5.005755 12.530997,-5.167086 14.4375,-4.875 -3.791147,-2.957852 -6.378013,-7.362296 -7,-12.375 z m 27.15625,14.375 c -2.571828,1.342432 -5.491781,2.125 -8.59375,2.125 -1.621722,0 -3.187776,-0.235179 -4.6875,-0.625 1.414943,1.72656 3.394,5.635875 3.625,14.21875 0.27,9.883 -2.63575,13.68325 -4.21875,15.03125 -1.63,0.738 -3.16125,1.7405 -4.53125,2.9375 -1.504,0.532 -5.79775,1.101 -14.84375,-3.75 C 42.828,60.39625 41.36925,56.0065 41.15625,54.6875 40.715085,59.906752 38.107176,64.525368 34.25,67.625 l -0.125,0.25 c 0,0 4.12325,-3.393 16.03125,3 9.4,5.044 10.78975,9.98575 10.96875,11.84375 l 0.159315,0.33456 0.153185,0.32169 c 0,-10.276997 8.316753,-18.59375 18.59375,-18.59375 2.361084,0 4.609261,0.479203 6.6875,1.28125 l 0.25,-0.03125 c 0,0 -4.137,-1.8455 -4.5,-15.1875 -0.278523,-10.352694 2.252357,-13.997642 3.40625,-15.125 z"
   id="path3074"
   inkscape:connector-curvature="0"
   sodipodi:nodetypes="cccccccccccsccccccccccccscccc"
   transform="translate(-4,-0.117)" /><path
   sodipodi:type="arc"
   style="fill:#ef7c00;fill-opacity:1;stroke:#ef7c00;stroke-width:0.84894961;stroke-miterlimit:4;stroke-opacity:1;stroke-dasharray:none;stroke-dashoffset:3.39999993"
   id="path3098"
   sodipodi:cx="35.181606"
   sodipodi:cy="66.665764"
   sodipodi:rx="15.79738"
   sodipodi:ry="15.79738"
   d="m 50.978987,66.665764 a 15.79738,15.79738 0 1 1 -31.594761,0 15.79738,15.79738 0 1 1 31.594761,0 z"
   transform="matrix(1.1779262,0,0,1.1779262,-22.83307,-25.531715)" /><path
   transform="matrix(1.1779262,0,0,1.1779262,31.843686,-59.422882)"
   d="m 50.978987,66.665764 a 15.79738,15.79738 0 1 1 -31.594761,0 15.79738,15.79738 0 1 1 31.594761,0 z"
   sodipodi:ry="15.79738"
   sodipodi:rx="15.79738"
   sodipodi:cy="66.665764"
   sodipodi:cx="35.181606"
   id="path3995"
   style="fill:#86ba0c;fill-opacity:1;stroke:#86ba0c;stroke-width:0.84894961000000002;stroke-miterlimit:4;stroke-opacity:1;stroke-dasharray:none;stroke-dashoffset:3.39999992999999989"
   sodipodi:type="arc" /><path
   sodipodi:type="arc"
   style="fill:#bd1789;fill-opacity:1;stroke:#bd1789;stroke-width:0.84894961000000002;stroke-miterlimit:4;stroke-opacity:1;stroke-dasharray:none;stroke-dashoffset:3.39999992999999989"
   id="path3997"
   sodipodi:cx="35.181606"
   sodipodi:cy="66.665764"
   sodipodi:rx="15.79738"
   sodipodi:ry="15.79738"
   d="m 50.978987,66.665764 a 15.79738,15.79738 0 1 1 -31.594761,0 15.79738,15.79738 0 1 1 31.594761,0 z"
   transform="matrix(1.1779262,0,0,1.1779262,34.600562,4.7441411)" /><g
   id="g3076">
      <path
   d="m 62.239,8.1 c -5.415,5.923 -5.529,14.636 -0.312,19.566 -2.579,-2.483 -2.523,-7.651 0.083,-12.597 0.335,-0.443 1.306,-1.49 2.725,-1.014 0.143,0.049 0.237,0.062 0.292,0.053 0.321,0.069 0.65,0.11 0.99,0.095 2.155,-0.098 3.822,-1.921 3.725,-4.077 C 69.698,9.159 69.297,8.303 68.677,7.646 73.679,4.369 79.419,3.994 81.771,6.142 l 0.09,0.006 C 76.488,1.242 67.705,2.119 62.239,8.1 z"
   id="path3078"
   inkscape:connector-curvature="0"
   style="fill:#ffffff" />
    </g>
    <g
   id="g3080">
      <path
   d="M 7.632,62.845 C 7.586,62.798 7.539,62.743 7.491,62.697 c 0.03,0.031 0.059,0.069 0.095,0.102 l 0.046,0.046 z"
   id="path3082"
   inkscape:connector-curvature="0"
   style="fill:#ffffff" />
      <path
   d="M 7.805,43.13 C 2.389,49.054 2.276,57.765 7.492,62.696 4.914,60.212 4.969,55.044 7.575,50.098 c 0.336,-0.444 1.308,-1.49 2.727,-1.014 0.141,0.049 0.236,0.061 0.292,0.054 0.321,0.069 0.651,0.11 0.99,0.095 2.156,-0.099 3.822,-1.922 3.725,-4.076 -0.045,-0.967 -0.445,-1.824 -1.063,-2.48 4.999,-3.276 10.74,-3.654 13.092,-1.505 l 0.089,0.008 C 22.054,36.271 13.269,37.147 7.805,43.13 z"
   id="path3084"
   inkscape:connector-curvature="0"
   style="fill:#ffffff" />
    </g>
    <g
   id="g3086">
      <path
   d="m 65.256,92.504 c -0.047,-0.048 -0.094,-0.102 -0.141,-0.148 0.029,0.031 0.059,0.069 0.094,0.101 l 0.047,0.047 z"
   id="path3088"
   inkscape:connector-curvature="0"
   style="fill:#ffffff" />
      <path
   d="m 65.428,72.786 c -5.416,5.926 -5.529,14.639 -0.313,19.569 -2.58,-2.483 -2.523,-7.653 0.082,-12.597 0.336,-0.445 1.307,-1.49 2.727,-1.014 0.143,0.047 0.235,0.061 0.292,0.053 0.32,0.069 0.651,0.11 0.99,0.096 2.154,-0.1 3.82,-1.924 3.723,-4.08 -0.044,-0.966 -0.445,-1.822 -1.063,-2.479 5,-3.275 10.739,-3.652 13.093,-1.504 l 0.088,0.007 c -5.37,-4.907 -14.156,-4.03 -19.619,1.949 z"
   id="path3090"
   inkscape:connector-curvature="0"
   style="fill:#ffffff" />
    </g>
  </g>
</svg>